<?xml version="1.0" encoding="UTF-8" standalone="no"?>
<svg
   xmlns:dc="http://purl.org/dc/elements/1.1/"
   xmlns:cc="http://creativecommons.org/ns#"
   xmlns:rdf="http://www.w3.org/1999/02/22-rdf-syntax-ns#"
   xmlns:svg="http://www.w3.org/2000/svg"
   xmlns="http://www.w3.org/2000/svg"
   xmlns:sodipodi="http://sodipodi.sourceforge.net/DTD/sodipodi-0.dtd"
   xmlns:inkscape="http://www.inkscape.org/namespaces/inkscape"
   version="1.1"
   x="0px"
   y="0px"
   viewBox="0 0 80 80"
   xml:space="preserve"
   id="svg2"
   inkscape:version="0.91 r13725"
   sodipodi:docname="hand.svg"
   width="80"
   height="80"><metadata
     id="metadata14"><rdf:RDF><cc:Work
         rdf:about=""><dc:format>image/svg+xml</dc:format><dc:type
           rdf:resource="http://purl.org/dc/dcmitype/StillImage" /><dc:title></dc:title></cc:Work></rdf:RDF></metadata><defs
     id="defs12" /><sodipodi:namedview
     pagecolor="#ffffff"
     bordercolor="#666666"
     borderopacity="1"
     objecttolerance="10"
     gridtolerance="10"
     guidetolerance="10"
     inkscape:pageopacity="0"
     inkscape:pageshadow="2"
     inkscape:window-width="1448"
     inkscape:window-height="1044"
     id="namedview10"
     showgrid="false"
     inkscape:zoom="6.62275"
     inkscape:cx="50"
     inkscape:cy="62.5"
     inkscape:window-x="0"
     inkscape:window-y="0"
     inkscape:window-maximized="0"
     inkscape:current-layer="svg2" /><path
     style="fill:#ffffff"
     d="m 67.40216,38.066818 c -0.475,0.355 -0.924,0.691 -1.258,0.993 -2.691,2.438 -4.241,4.595 -4.878,6.79 -0.231,0.797 -0.385,1.608 -0.548,2.466 -0.211,1.113 -0.429,2.263 -0.833,3.404 -1.221,3.449 -4.484,10.815 -10.484,12.813 l 0,7.962 c 0,0.457 -0.37,0.827 -0.827,0.827 -0.457,0 -0.827,-0.37 -0.827,-0.827 l 0,-7.551 c -0.481,0.072 -0.976,0.112 -1.488,0.112 -0.457,0 -0.827,-0.37 -0.827,-0.827 0,-0.457 0.37,-0.827 0.827,-0.827 2.326,0 8.157,-1.192 12.067,-12.234 0.361,-1.021 0.558,-2.06 0.767,-3.16 0.163,-0.858 0.331,-1.746 0.584,-2.619 0.954,-3.287 3.513,-5.886 5.356,-7.555 0.391,-0.354 0.871,-0.713 1.378,-1.092 2.162,-1.616 3.639,-2.891 2.944,-4.591 -0.193,-0.471 -0.479,-0.773 -0.901,-0.949 -0.89,-0.371 -2.389,-0.158 -4.22,0.601 -4.627,1.917 -8.217,6.346 -11.498,10.718 -0.273,0.365 -0.792,0.44 -1.157,0.165 -0.365,-0.274 -0.439,-0.792 -0.165,-1.157 0.625,-0.832 1.261,-1.667 1.913,-2.487 -0.894,-0.172 -1.642,-0.538 -2.216,-1.118 -1.161,-1.172 -1.16,-2.734 -1.159,-2.8 l 0,-2.163 0,-2.018 0,-17.003 c 0,-1.636 -1.331,-2.966 -2.966,-2.966 -1.636,0 -2.966,1.331 -2.966,2.966 l 0,22.845 c 0,0.457 -0.37,0.827 -0.827,0.827 -0.457,0 -0.827,-0.37 -0.827,-0.827 l 0,-28.2709996 c 0,-1.732 -1.409,-3.14 -3.14,-3.14 -1.732,0 -3.14,1.409 -3.14,3.14 l 0,6.1559996 0,13.808 0,8.307 c 0,0.457 -0.37,0.827 -0.827,0.827 -0.457,0 -0.827,-0.37 -0.827,-0.827 l 0,-8.307 0,-13.808 c 0,-1.616 -1.315,-2.931 -2.931,-2.931 -1.616,0 -2.931,1.315 -2.931,2.931 l 0,7.843 0,12.33 0,1.943 c 0,0.457 -0.37,0.827 -0.827,0.827 -0.457,0 -0.827,-0.37 -0.827,-0.827 l 0,-1.943 0,-12.33 c 0,-1.52 -1.236,-2.756 -2.756,-2.756 -1.52,0 -2.756,1.236 -2.756,2.756 l 0,16.802 c 0,0.002 10e-4,0.004 10e-4,0.006 l 0,9.391 c -10e-4,0.072 -0.079,5.782 1.886,9.453 1.387,2.592 3.021,4.116 5.139,4.799 0.149,0.048 0.282,0.092 0.405,0.133 0.75,0.249 1.003,0.332 2.083,0.307 0.457,-0.022 0.836,0.35 0.846,0.806 0.011,0.456 -0.35,0.836 -0.806,0.846 -0.131,0.003 -0.253,0.005 -0.367,0.005 -0.702,0 -1.131,-0.065 -1.581,-0.185 l 0,7.62 c 0,0.457 -0.37,0.827 -0.827,0.827 -0.457,0 -0.827,-0.37 -0.827,-0.827 l 0,-7.953 c 0,-0.073 0.024,-0.138 0.042,-0.206 -2.292,-0.891 -4.076,-2.611 -5.565,-5.392 -2.171,-4.055 -2.086,-9.997 -2.082,-10.248 l 0,-6.945 c 0,-0.002 -10e-4,-0.004 -10e-4,-0.006 l 0,-19.233 c 0,-2.431 1.978,-4.409 4.409,-4.409 1.048,0 1.999,0.383 2.756,0.995 l 0,-4.429 c 0,-2.528 2.057,-4.584 4.584,-4.584 1.12,0 2.134,0.42 2.931,1.089 l 0,-2.8699996 c 0,-0.074 0.024,-0.141 0.042,-0.21 0.216,-2.444 2.251,-4.375 4.751,-4.375 2.643,0 4.793,2.15 4.793,4.793 l 0,1.9139996 c 0.805,-0.6809996 1.832,-1.1079996 2.966,-1.1079996 2.403,0 4.36,1.8509996 4.577,4.1979996 0.019,0.069 0.043,0.136 0.043,0.211 l 0,17.214 0,2.018 0,2.17 c 0.003,0.397 0.156,2.375 2.906,2.375 0.023,0 0.043,0.011 0.066,0.013 2.6,-3.066 5.501,-5.784 9.024,-7.243 2.306,-0.955 4.153,-1.156 5.489,-0.599 0.831,0.346 1.435,0.969 1.795,1.849 1.238,3.016 -1.601,5.138 -3.48,6.542 z m -16.875,7.152 c 0.324,-0.32 0.327,-0.842 0.008,-1.167 -0.32,-0.326 -0.843,-0.33 -1.169,-0.01 -0.08,0.078 -1.956,1.952 -2.319,4.987 -0.194,1.616 -0.291,3.798 0.68,6.344 0.126,0.33 0.439,0.532 0.773,0.532 0.098,0 0.197,-0.017 0.294,-0.054 0.427,-0.163 0.641,-0.64 0.478,-1.067 -0.837,-2.196 -0.765,-4.043 -0.583,-5.559 0.292,-2.438 1.823,-3.99 1.838,-4.006 z"
     id="path4"
     inkscape:connector-curvature="0" /></svg>